<svg width="400" height="634" viewBox="0 0 400 634" fill="none" xmlns="http://www.w3.org/2000/svg">
<rect width="400" height="627.183" rx="30" fill="url(#paint0_linear_229_158)"/>
<path d="M83.811 68.8401H75.55V80.2651H83.811V68.8401Z" fill="white"/>
<path d="M83.811 55.735H75.55V67.84H83.811V55.735Z" fill="white"/>
<path d="M65.8425 54.735H74.45V38H58.5C55.464 38 53 40.24 53 43V44.81L65.8425 54.735Z" fill="white"/>
<path d="M84.9109 55.465V67.84H96.9999V46.125L84.9109 55.465Z" fill="white"/>
<path d="M84.9109 80.5351L96.9999 89.8751V68.8401H84.9109V80.5351Z" fill="white"/>
<path d="M75.5501 54.735H84.1576L97.0001 44.81V43C97.0001 40.24 94.5361 38 91.5001 38H75.5501V54.735Z" fill="white"/>
<path d="M74.45 81.265H65.8425L53 91.19V93C53 95.76 55.464 98 58.5 98H74.45V81.265Z" fill="white"/>
<path d="M84.1575 81.265H75.55V98H91.5C94.536 98 97 95.76 97 93V91.19L84.1575 81.265Z" fill="white"/>
<path d="M65.089 80.5351V68.8401H53V89.8751L65.089 80.5351Z" fill="white"/>
<path d="M74.4498 55.735H66.1888V67.84H74.4498V55.735Z" fill="white"/>
<path d="M74.4498 68.8401H66.1888V80.2651H74.4498V68.8401Z" fill="white"/>
<path d="M65.089 55.465L53 46.125V67.84H65.089V55.465Z" fill="white"/>
<mask id="mask0_229_158" style="mask-type:alpha" maskUnits="userSpaceOnUse" x="0" y="6" width="400" height="628">
<rect y="6.81726" width="400" height="627.183" rx="30" fill="#ED713C"/>
</mask>
<g mask="url(#mask0_229_158)">
<ellipse opacity="0.1" cx="28.5715" cy="726.032" rx="203.81" ry="385.172" fill="black"/>
<ellipse opacity="0.08" cx="366.349" cy="-98.8494" rx="203.81" ry="385.172" fill="black"/>
</g>
<defs>
<linearGradient id="paint0_linear_229_158" x1="70.3448" y1="-99.0289" x2="345.634" y2="699.79" gradientUnits="userSpaceOnUse">
<stop stop-color="#F77014"/>
<stop offset="1" stop-color="#F55B46"/>
</linearGradient>
</defs>
</svg>
