<svg width="328" height="305" viewBox="0 0 328 305" fill="none" xmlns="http://www.w3.org/2000/svg">
<path d="M5.2748 263.679C5.2748 265.569 5.7428 267 7.5428 267C9.3338 267 9.8018 265.569 9.8018 263.679C9.8018 261.816 9.3338 260.394 7.5428 260.394C5.7428 260.394 5.2748 261.816 5.2748 263.679ZM8.9918 263.679C8.9918 265.083 8.8208 266.253 7.5428 266.253C6.2558 266.253 6.0848 265.083 6.0848 263.679C6.0848 262.329 6.2558 261.141 7.5428 261.141C8.8208 261.141 8.9918 262.329 8.9918 263.679ZM11.0612 267H11.8802V264.822L13.8152 267H14.9312L12.6002 264.525L14.9222 262.068H13.7792L11.8802 264.255V260.34H11.0612V267Z" fill="#EFEFEF"/>
<path d="M5.60836 225.131H6.40936C6.49036 224.501 6.94936 224.069 7.71436 224.069C8.49736 224.069 8.91136 224.501 8.91136 225.122C8.91136 225.878 8.32636 226.211 7.23736 226.22H7.02136V226.904H7.22836C8.39836 226.904 9.03736 227.255 9.03736 228.173C9.03736 228.839 8.62336 229.352 7.75036 229.352C6.88636 229.352 6.38236 228.821 6.30136 228.128H5.50936C5.60836 229.388 6.52636 230.045 7.75936 230.045C9.11836 230.045 9.82036 229.253 9.82036 228.245C9.82036 227.309 9.30736 226.751 8.55136 226.571V226.526C9.23536 226.373 9.70336 225.788 9.70336 225.041C9.70336 224.105 9.01036 223.367 7.74136 223.367C6.53536 223.367 5.68936 224.015 5.60836 225.131ZM11.0612 230H11.8802V227.822L13.8152 230H14.9312L12.6002 227.525L14.9222 225.068H13.7792L11.8802 227.255V223.34H11.0612V230Z" fill="#EFEFEF"/>
<path d="M9.59627 188.041C9.48827 187.132 8.85827 186.358 7.61627 186.358C5.96927 186.358 5.31227 187.618 5.31227 189.661C5.31227 191.632 5.77127 193.018 7.69727 193.018C9.11927 193.018 9.82127 192.046 9.82127 190.858C9.82127 189.49 9.00227 188.689 7.78727 188.689C7.01327 188.689 6.30227 189.049 6.02327 189.688C6.01427 187.753 6.57227 187.042 7.60727 187.042C8.34527 187.042 8.71427 187.411 8.84027 188.041H9.59627ZM7.61627 189.382C8.55227 189.382 9.02927 189.967 9.02927 190.885C9.02927 191.767 8.49827 192.334 7.65227 192.334C6.62627 192.334 6.12227 191.659 6.12227 190.795C6.12227 189.823 6.86927 189.382 7.61627 189.382ZM11.0612 193H11.8802V190.822L13.8152 193H14.9312L12.6002 190.525L14.9222 188.068H13.7792L11.8802 190.255V186.34H11.0612V193Z" fill="#EFEFEF"/>
<path d="M5.55422 154.254C5.64422 155.208 6.27422 156.009 7.57022 156.009C9.28022 156.009 9.77522 154.794 9.77522 152.625C9.77522 150.609 9.26222 149.367 7.49822 149.367C6.09422 149.367 5.35622 150.267 5.35622 151.509C5.35622 152.886 6.24722 153.633 7.44422 153.633C8.14622 153.633 8.79422 153.318 9.05522 152.769C9.08222 154.677 8.56922 155.325 7.61522 155.325C6.85922 155.325 6.42722 154.929 6.31022 154.254H5.55422ZM7.57922 152.94C6.60722 152.94 6.13922 152.328 6.13922 151.491C6.13922 150.627 6.67022 150.051 7.51622 150.051C8.45222 150.051 8.95622 150.672 8.95622 151.554C8.95622 152.427 8.36222 152.94 7.57922 152.94ZM11.0612 156H11.8802V153.822L13.8152 156H14.9312L12.6002 153.525L14.9222 151.068H13.7792L11.8802 153.255V149.34H11.0612V156Z" fill="#EFEFEF"/>
<path d="M1.206 119H2.034V112.493H0.342V113.24H1.206V119ZM3.34181 118.928H7.67081V118.244H4.57481C5.73581 117.299 7.48181 115.922 7.48181 114.302C7.48181 113.096 6.68981 112.376 5.46581 112.376C4.29581 112.376 3.42281 113.096 3.36881 114.482H4.16081C4.19681 113.663 4.62881 113.078 5.47481 113.078C6.35681 113.078 6.67181 113.618 6.67181 114.338C6.67181 115.67 5.05181 116.966 3.34181 118.343V118.928ZM8.75257 119H9.57157V116.822L11.5066 119H12.6226L10.2916 116.525L12.6136 114.068H11.4706L9.57157 116.255V112.34H8.75257V119Z" fill="#EFEFEF"/>
<path d="M1.206 85H2.034V78.493H0.342V79.24H1.206V85ZM3.67481 78.484V82.156H4.44881C4.66481 81.643 5.14181 81.301 5.79881 81.301C6.74381 81.301 7.22081 81.841 7.22081 82.768C7.22081 83.659 6.77981 84.325 5.78981 84.325C5.02481 84.325 4.49381 83.92 4.34081 83.236H3.53981C3.70181 84.289 4.48481 85.018 5.78081 85.018C7.30181 85.018 8.00381 84.01 8.00381 82.75C8.00381 81.742 7.49981 80.599 5.91581 80.599C5.27681 80.599 4.70081 80.887 4.43081 81.256V79.204H7.58981V78.484H3.67481ZM9.22718 85H10.0462V82.822L11.9812 85H13.0972L10.7662 82.525L13.0882 80.068H11.9452L10.0462 82.255V78.34H9.22718V85Z" fill="#EFEFEF"/>
<path d="M31.5602 283H32.3792V278.347L34.4582 283H35.0342L37.1042 278.356V283H37.9232V276.772H37.0502L34.7462 281.92L32.4422 276.772H31.5602V283ZM43.9921 280.525C43.9921 278.968 42.9031 277.987 41.4991 277.987C40.1041 277.987 39.0061 278.968 39.0061 280.525C39.0061 282.091 40.0681 283.081 41.4631 283.081C42.8671 283.081 43.9921 282.091 43.9921 280.525ZM39.8431 280.525C39.8431 279.283 40.6261 278.698 41.4901 278.698C42.3361 278.698 43.1551 279.283 43.1551 280.525C43.1551 281.776 42.3181 282.361 41.4631 282.361C40.6081 282.361 39.8431 281.776 39.8431 280.525ZM48.678 283H49.488V280.093C49.488 278.68 48.615 277.978 47.472 277.978C46.806 277.978 46.212 278.257 45.888 278.77V278.068H45.069V283H45.888V280.273C45.888 279.211 46.464 278.689 47.301 278.689C48.129 278.689 48.678 279.202 48.678 280.21V283Z" fill="#B9C1D9"/>
<path d="M36.0457 301H37.1497V292.324H34.8937V293.32H36.0457V301ZM39.3375 292.312V297.208H40.3695C40.6575 296.524 41.2935 296.068 42.1695 296.068C43.4295 296.068 44.0655 296.788 44.0655 298.024C44.0655 299.212 43.4775 300.1 42.1575 300.1C41.1375 300.1 40.4295 299.56 40.2255 298.648H39.1575C39.3735 300.052 40.4175 301.024 42.1455 301.024C44.1735 301.024 45.1095 299.68 45.1095 298C45.1095 296.656 44.4375 295.132 42.3255 295.132C41.4735 295.132 40.7055 295.516 40.3455 296.008V293.272H44.5575V292.312H39.3375Z" fill="#EFEFEF"/>
<path d="M70.2025 277.393H71.9215V283H72.7405V277.393H74.4505V276.727H70.2025V277.393ZM79.8326 278.068H79.0136V280.777C79.0136 281.839 78.4466 282.361 77.6006 282.361C76.7726 282.361 76.2236 281.848 76.2236 280.849V278.068H75.4136V280.957C75.4136 282.37 76.3046 283.072 77.4386 283.072C78.0956 283.072 78.6986 282.784 79.0136 282.271V283H79.8326V278.068ZM83.3125 278.68C84.1585 278.68 84.8785 279.211 84.8695 280.174H81.7555C81.8455 279.211 82.5115 278.68 83.3125 278.68ZM85.6165 281.479H84.7345C84.5545 282.01 84.0865 282.388 83.3485 282.388C82.5115 282.388 81.8095 281.839 81.7465 280.84H85.6885C85.7065 280.669 85.7155 280.525 85.7155 280.345C85.7155 278.995 84.7795 277.987 83.3485 277.987C81.9085 277.987 80.9095 278.968 80.9095 280.525C80.9095 282.091 81.9445 283.081 83.3485 283.081C84.5725 283.081 85.3645 282.379 85.6165 281.479Z" fill="#B9C1D9"/>
<path d="M74.0047 301H75.1087V292.324H72.8527V293.32H74.0047V301ZM82.8285 294.388C82.6845 293.176 81.8445 292.144 80.1885 292.144C77.9925 292.144 77.1165 293.824 77.1165 296.548C77.1165 299.176 77.7285 301.024 80.2965 301.024C82.1925 301.024 83.1285 299.728 83.1285 298.144C83.1285 296.32 82.0365 295.252 80.4165 295.252C79.3845 295.252 78.4365 295.732 78.0645 296.584C78.0525 294.004 78.7965 293.056 80.1765 293.056C81.1605 293.056 81.6525 293.548 81.8205 294.388H82.8285ZM80.1885 296.176C81.4365 296.176 82.0725 296.956 82.0725 298.18C82.0725 299.356 81.3645 300.112 80.2365 300.112C78.8685 300.112 78.1965 299.212 78.1965 298.06C78.1965 296.764 79.1925 296.176 80.1885 296.176Z" fill="#EFEFEF"/>
<path d="M106.74 283.009L107.649 283L109.161 277.951L110.619 283H111.537L113.355 276.727H112.473L111.096 282.028L109.656 276.727H108.738L107.226 282.046L105.858 276.727H104.985L106.74 283.009ZM116.349 278.68C117.195 278.68 117.915 279.211 117.906 280.174H114.792C114.882 279.211 115.548 278.68 116.349 278.68ZM118.653 281.479H117.771C117.591 282.01 117.123 282.388 116.385 282.388C115.548 282.388 114.846 281.839 114.783 280.84H118.725C118.743 280.669 118.752 280.525 118.752 280.345C118.752 278.995 117.816 277.987 116.385 277.987C114.945 277.987 113.946 278.968 113.946 280.525C113.946 282.091 114.981 283.081 116.385 283.081C117.609 283.081 118.401 282.379 118.653 281.479ZM119.527 280.516C119.527 282.046 120.544 283.081 121.867 283.081C122.767 283.081 123.406 282.622 123.703 282.073V283H124.531V276.34H123.703V278.95C123.361 278.383 122.65 277.987 121.876 277.987C120.544 277.987 119.527 278.977 119.527 280.516ZM123.703 280.525C123.703 281.686 122.929 282.361 122.029 282.361C121.129 282.361 120.364 281.677 120.364 280.516C120.364 279.355 121.129 278.698 122.029 278.698C122.929 278.698 123.703 279.382 123.703 280.525Z" fill="#B9C1D9"/>
<path d="M111.99 301H113.094V292.324H110.838V293.32H111.99V301ZM114.621 292.348V293.284H119.253L115.869 301H116.973L120.309 293.176V292.348H114.621Z" fill="#EFEFEF"/>
<path d="M144.615 277.393H146.334V283H147.153V277.393H148.863V276.727H144.615V277.393ZM149.871 283H150.69V280.273C150.69 279.211 151.266 278.689 152.103 278.689C152.931 278.689 153.48 279.202 153.48 280.21V283H154.29V280.093C154.29 278.68 153.417 277.978 152.319 277.978C151.626 277.978 151.014 278.257 150.69 278.779V276.34H149.871V283ZM160.002 278.068H159.183V280.777C159.183 281.839 158.616 282.361 157.77 282.361C156.942 282.361 156.393 281.848 156.393 280.849V278.068H155.583V280.957C155.583 282.37 156.474 283.072 157.608 283.072C158.265 283.072 158.868 282.784 159.183 282.271V283H160.002V278.068Z" fill="#B9C1D9"/>
<path d="M148.028 301H149.132V292.324H146.876V293.32H148.028V301ZM152.592 296.488C151.62 296.776 150.984 297.568 150.984 298.66C150.984 300.232 152.22 301.24 154.044 301.24C155.88 301.24 157.128 300.232 157.128 298.66C157.128 297.58 156.492 296.788 155.508 296.488C156.36 296.152 156.9 295.432 156.9 294.496C156.9 293.236 155.928 292.192 154.044 292.192C152.16 292.192 151.2 293.224 151.2 294.496C151.2 295.468 151.704 296.14 152.592 296.488ZM154.044 296.128C152.988 296.128 152.256 295.54 152.256 294.64C152.256 293.62 152.976 293.104 154.044 293.104C155.136 293.104 155.844 293.632 155.844 294.628C155.844 295.528 155.112 296.128 154.044 296.128ZM154.044 296.968C155.184 296.968 156.048 297.508 156.048 298.624C156.048 299.632 155.28 300.328 154.044 300.328C152.808 300.328 152.028 299.644 152.028 298.624C152.028 297.472 152.928 296.968 154.044 296.968Z" fill="#EFEFEF"/>
<path d="M184.139 283H184.958V280.174H187.172V279.508H184.958V277.393H187.685V276.727H184.139V283ZM189.493 280.318C189.493 279.175 190.087 278.824 190.87 278.824H191.086V277.978C190.303 277.978 189.772 278.32 189.493 278.869V278.068H188.674V283H189.493V280.318ZM192.032 283H192.851V278.068H192.032V283ZM192.455 277.267C192.752 277.267 192.995 277.024 192.995 276.709C192.995 276.394 192.752 276.151 192.455 276.151C192.14 276.151 191.897 276.394 191.897 276.709C191.897 277.024 192.14 277.267 192.455 277.267Z" fill="#B9C1D9"/>
<path d="M184.034 301H185.138V292.324H182.882V293.32H184.034V301ZM187.41 298.672C187.53 299.944 188.37 301.012 190.098 301.012C192.378 301.012 193.038 299.392 193.038 296.5C193.038 293.812 192.354 292.156 190.002 292.156C188.13 292.156 187.146 293.356 187.146 295.012C187.146 296.848 188.334 297.844 189.93 297.844C190.866 297.844 191.73 297.424 192.078 296.692C192.114 299.236 191.43 300.1 190.158 300.1C189.15 300.1 188.574 299.572 188.418 298.672H187.41ZM190.11 296.92C188.814 296.92 188.19 296.104 188.19 294.988C188.19 293.836 188.898 293.068 190.026 293.068C191.274 293.068 191.946 293.896 191.946 295.072C191.946 296.236 191.154 296.92 190.11 296.92Z" fill="#EFEFEF"/>
<path d="M223.449 281.29C223.449 278.968 220.065 279.976 220.065 278.356C220.065 277.681 220.596 277.33 221.271 277.348C222.036 277.357 222.432 277.834 222.486 278.257H223.386C223.287 277.303 222.504 276.646 221.307 276.646C220.065 276.646 219.228 277.348 219.228 278.383C219.228 280.714 222.621 279.634 222.621 281.326C222.621 281.92 222.153 282.37 221.361 282.37C220.488 282.37 220.119 281.848 220.065 281.326H219.192C219.21 282.361 220.101 283.063 221.361 283.063C222.72 283.063 223.449 282.181 223.449 281.29ZM224.348 280.516C224.348 282.046 225.365 283.081 226.679 283.081C227.588 283.081 228.227 282.613 228.524 282.082V283H229.352V278.068H228.524V278.968C228.236 278.455 227.606 277.987 226.688 277.987C225.365 277.987 224.348 278.977 224.348 280.516ZM228.524 280.525C228.524 281.686 227.75 282.361 226.85 282.361C225.95 282.361 225.185 281.677 225.185 280.516C225.185 279.355 225.95 278.698 226.85 278.698C227.75 278.698 228.524 279.382 228.524 280.525ZM230.916 281.65C230.916 282.64 231.411 283 232.284 283H233.022V282.307H232.419C231.915 282.307 231.735 282.136 231.735 281.65V278.743H233.022V278.068H231.735V276.826H230.916V278.068H230.277V278.743H230.916V281.65Z" fill="#B9C1D9"/>
<path d="M219.069 300.904H224.841V299.992H220.713C222.261 298.732 224.589 296.896 224.589 294.736C224.589 293.128 223.533 292.168 221.901 292.168C220.341 292.168 219.177 293.128 219.105 294.976H220.161C220.209 293.884 220.785 293.104 221.913 293.104C223.089 293.104 223.509 293.824 223.509 294.784C223.509 296.56 221.349 298.288 219.069 300.124V300.904ZM226.103 296.572C226.103 299.092 226.727 301 229.127 301C231.515 301 232.139 299.092 232.139 296.572C232.139 294.088 231.515 292.192 229.127 292.192C226.727 292.192 226.103 294.088 226.103 296.572ZM231.059 296.572C231.059 298.444 230.831 300.004 229.127 300.004C227.411 300.004 227.183 298.444 227.183 296.572C227.183 294.772 227.411 293.188 229.127 293.188C230.831 293.188 231.059 294.772 231.059 296.572Z" fill="#EFEFEF"/>
<path d="M259.872 281.29C259.872 278.968 256.488 279.976 256.488 278.356C256.488 277.681 257.019 277.33 257.694 277.348C258.459 277.357 258.855 277.834 258.909 278.257H259.809C259.71 277.303 258.927 276.646 257.73 276.646C256.488 276.646 255.651 277.348 255.651 278.383C255.651 280.714 259.044 279.634 259.044 281.326C259.044 281.92 258.576 282.37 257.784 282.37C256.911 282.37 256.542 281.848 256.488 281.326H255.615C255.633 282.361 256.524 283.063 257.784 283.063C259.143 283.063 259.872 282.181 259.872 281.29ZM265.451 278.068H264.632V280.777C264.632 281.839 264.065 282.361 263.219 282.361C262.391 282.361 261.842 281.848 261.842 280.849V278.068H261.032V280.957C261.032 282.37 261.923 283.072 263.057 283.072C263.714 283.072 264.317 282.784 264.632 282.271V283H265.451V278.068ZM270.443 283H271.253V280.093C271.253 278.68 270.38 277.978 269.237 277.978C268.571 277.978 267.977 278.257 267.653 278.77V278.068H266.834V283H267.653V280.273C267.653 279.211 268.229 278.689 269.066 278.689C269.894 278.689 270.443 279.202 270.443 280.21V283Z" fill="#B9C1D9"/>
<path d="M258.818 300.904H264.59V299.992H260.462C262.01 298.732 264.338 296.896 264.338 294.736C264.338 293.128 263.282 292.168 261.65 292.168C260.09 292.168 258.926 293.128 258.854 294.976H259.91C259.958 293.884 260.534 293.104 261.662 293.104C262.838 293.104 263.258 293.824 263.258 294.784C263.258 296.56 261.098 298.288 258.818 300.124V300.904ZM266.716 301H267.82V292.324H265.564V293.32H266.716V301Z" fill="#EFEFEF"/>
<path d="M290.56 283H291.379V278.347L293.458 283H294.034L296.104 278.356V283H296.923V276.772H296.05L293.746 281.92L291.442 276.772H290.56V283ZM302.992 280.525C302.992 278.968 301.903 277.987 300.499 277.987C299.104 277.987 298.006 278.968 298.006 280.525C298.006 282.091 299.068 283.081 300.463 283.081C301.867 283.081 302.992 282.091 302.992 280.525ZM298.843 280.525C298.843 279.283 299.626 278.698 300.49 278.698C301.336 278.698 302.155 279.283 302.155 280.525C302.155 281.776 301.318 282.361 300.463 282.361C299.608 282.361 298.843 281.776 298.843 280.525ZM307.678 283H308.488V280.093C308.488 278.68 307.615 277.978 306.472 277.978C305.806 277.978 305.212 278.257 304.888 278.77V278.068H304.069V283H304.888V280.273C304.888 279.211 305.464 278.689 306.301 278.689C307.129 278.689 307.678 279.202 307.678 280.21V283Z" fill="#B9C1D9"/>
<path d="M293.385 300.904H299.157V299.992H295.029C296.577 298.732 298.905 296.896 298.905 294.736C298.905 293.128 297.849 292.168 296.217 292.168C294.657 292.168 293.493 293.128 293.421 294.976H294.477C294.525 293.884 295.101 293.104 296.229 293.104C297.405 293.104 297.825 293.824 297.825 294.784C297.825 296.56 295.665 298.288 293.385 300.124V300.904ZM300.287 300.904H306.059V299.992H301.931C303.479 298.732 305.807 296.896 305.807 294.736C305.807 293.128 304.751 292.168 303.119 292.168C301.559 292.168 300.395 293.128 300.323 294.976H301.379C301.427 293.884 302.003 293.104 303.131 293.104C304.307 293.104 304.727 293.824 304.727 294.784C304.727 296.56 302.567 298.288 300.287 300.124V300.904Z" fill="#EFEFEF"/>
<path d="M34.1828 242.753H23V263C23 263.552 23.4477 264 24 264H317C317.552 264 318 263.552 318 263V129.655L305.751 146.342C305.253 147.02 304.191 146.817 303.977 146.003L298.409 124.747C298.294 124.307 297.896 124 297.442 124H281.564C281.284 124 281.017 124.117 280.828 124.323L269.939 136.173C269.639 136.499 269.16 136.589 268.762 136.394L256.119 130.184C255.559 129.909 254.886 130.208 254.716 130.809L244.803 165.869C244.577 166.667 243.533 166.859 243.038 166.192L232.649 152.195C232.199 151.59 231.268 151.68 230.943 152.36L229.498 155.388C229.223 155.966 228.482 156.139 227.978 155.743L222.706 151.6C222.216 151.215 221.497 151.367 221.205 151.918L213.142 167.126C212.925 167.536 212.454 167.742 212.005 167.625L202.936 165.249C202.406 165.11 201.862 165.424 201.718 165.953L191.312 204.12C191.232 204.412 191.025 204.653 190.747 204.774L175.855 211.276C175.372 211.487 174.809 211.287 174.567 210.819L164.229 190.819C163.85 190.085 162.794 190.102 162.438 190.848L158.078 199.985C157.969 200.214 157.777 200.393 157.542 200.485L147.559 204.408C147.279 204.518 147.063 204.749 146.972 205.036L140.981 223.868C140.88 224.185 140.629 224.43 140.311 224.524L126.766 228.516C126.548 228.58 126.359 228.717 126.229 228.902L117.294 241.671C116.914 242.214 116.12 242.243 115.7 241.73L109.034 233.58C108.701 233.173 108.109 233.094 107.68 233.399L86.5547 248.44C86.1991 248.693 85.7204 248.686 85.3721 248.423L78.4776 243.217C78.1153 242.943 77.6141 242.948 77.2571 243.229L70.9397 248.194C70.7635 248.332 70.5459 248.407 70.3217 248.407H56.7145C56.4359 248.407 56.1698 248.291 55.9806 248.087L42.7141 233.75C42.286 233.288 41.5419 233.331 41.1713 233.841L34.9916 242.341C34.8034 242.599 34.5027 242.753 34.1828 242.753Z" fill="url(#paint0_linear_102_70)" fill-opacity="0.24"/>
<path d="M24.756 242.753H33.6735C34.3135 242.753 34.9148 242.446 35.2912 241.929L40.4554 234.826C41.1967 233.806 42.6849 233.718 43.541 234.644L55.6838 247.766C56.0623 248.175 56.5944 248.407 57.1517 248.407H69.9759C70.4241 248.407 70.8593 248.257 71.2117 247.98L76.3208 243.965C77.1773 243.291 78.415 243.428 79.1047 244.271L84.6445 251.043C85.3618 251.92 86.6636 252.027 87.514 251.278L106.886 234.227C107.736 233.478 109.038 233.585 109.755 234.462L114.864 240.708C115.704 241.734 117.291 241.675 118.051 240.589L126.028 229.189C126.288 228.818 126.667 228.546 127.102 228.417L139.802 224.674C140.439 224.487 140.941 223.995 141.142 223.362L146.827 205.489C147.01 204.915 147.441 204.454 148.002 204.234L157.175 200.629C157.646 200.444 158.03 200.087 158.248 199.629L161.572 192.664C162.283 191.172 164.394 191.139 165.153 192.607L174.137 209.987C174.621 210.923 175.748 211.323 176.714 210.901L190.309 204.965C190.863 204.723 191.279 204.242 191.438 203.658L201.458 166.908C201.746 165.85 202.833 165.222 203.894 165.5L211.239 167.424C212.137 167.659 213.079 167.246 213.513 166.426L220.644 152.975C221.228 151.874 222.667 151.569 223.647 152.34L226.996 154.971C228.003 155.763 229.485 155.417 230.037 154.26L230.228 153.859C230.877 152.499 232.74 152.318 233.639 153.529L241.826 164.56C242.816 165.893 244.905 165.509 245.357 163.912L254.39 131.964C254.73 130.762 256.075 130.162 257.196 130.713L268.091 136.064C268.887 136.455 269.845 136.275 270.445 135.622L280.531 124.647C280.909 124.235 281.444 124 282.003 124H296.67C297.579 124 298.374 124.613 298.605 125.493L303.35 143.609C303.792 145.296 306.032 145.649 306.971 144.178L316.244 129.655" stroke="#F77014" stroke-width="2" stroke-linecap="round"/>
<path d="M274.56 20.392H275.584V19.096C278.112 18.984 279.488 17.464 279.488 15.736C279.488 13.256 277.296 12.792 275.584 12.312V9.832C276.032 9.992 276.336 10.36 276.4 10.952H279.328C279.184 8.92 277.776 7.8 275.584 7.624V6.328H274.56V7.624C272.384 7.768 270.704 8.952 270.704 10.952C270.704 13.464 272.848 13.944 274.56 14.392V16.92C274.016 16.744 273.696 16.344 273.632 15.688H270.72C270.8 17.752 272.384 18.888 274.56 19.08V20.392ZM276.624 15.832C276.624 16.424 276.224 16.856 275.584 16.968V14.696C276.208 14.936 276.624 15.256 276.624 15.832ZM273.6 10.824C273.6 10.2 273.968 9.848 274.56 9.752V11.976C273.984 11.72 273.6 11.384 273.6 10.824ZM281.155 18.84H289.187V16.616H284.867C286.723 15.192 289.011 13.144 289.011 10.584C289.011 8.616 287.827 7.064 285.171 7.064C283.043 7.064 281.203 8.28 281.123 11.112H283.763C283.763 10.008 284.243 9.368 285.059 9.368C285.891 9.368 286.275 9.912 286.275 10.76C286.275 12.728 283.635 14.76 281.155 16.808V18.84ZM298.712 10.472C298.568 8.744 297.448 7.08 294.936 7.08C291.912 7.08 290.664 9.08 290.664 13.08C290.664 16.568 291.528 19.064 295.048 19.064C297.56 19.064 299.032 17.464 299.032 15.144C299.032 12.712 297.592 11.384 295.56 11.384C294.488 11.384 293.544 11.832 293.08 12.584C293.096 10.328 293.576 9.288 294.808 9.288C295.624 9.288 296.008 9.704 296.168 10.472H298.712ZM294.904 13.544C295.928 13.544 296.456 14.184 296.456 15.16C296.456 16.152 295.864 16.744 294.936 16.744C293.896 16.744 293.304 16.136 293.304 15.112C293.304 14.056 294.04 13.544 294.904 13.544ZM300.995 15.576C301.123 17.368 302.355 19.048 304.899 19.048C308.035 19.048 308.963 16.84 308.963 12.856C308.963 9.304 308.035 7.048 304.707 7.048C302.227 7.048 300.691 8.584 300.691 10.952C300.691 13.432 302.227 14.68 304.227 14.68C305.219 14.68 306.083 14.296 306.547 13.64C306.547 15.864 306.147 16.84 304.995 16.84C304.147 16.84 303.683 16.392 303.523 15.576H300.995ZM304.851 12.52C303.779 12.52 303.267 11.864 303.267 10.984C303.267 10.008 303.843 9.4 304.787 9.4C305.715 9.4 306.323 9.96 306.323 11C306.323 11.944 305.747 12.52 304.851 12.52ZM310.327 18.84H318.359V16.616H314.039C315.895 15.192 318.183 13.144 318.183 10.584C318.183 8.616 316.999 7.064 314.343 7.064C312.215 7.064 310.375 8.28 310.295 11.112H312.935C312.935 10.008 313.415 9.368 314.231 9.368C315.063 9.368 315.447 9.912 315.447 10.76C315.447 12.728 312.807 14.76 310.327 16.808V18.84ZM319.292 7.336V9.672H324.268L320.204 19H323.004L327.02 9.368V7.336H319.292Z" fill="white"/>
<path d="M283.178 37.9H288.198V36.51H285.498C286.658 35.62 288.088 34.34 288.088 32.74C288.088 31.51 287.348 30.54 285.688 30.54C284.358 30.54 283.208 31.3 283.158 33.07H284.808C284.808 32.38 285.108 31.98 285.618 31.98C286.138 31.98 286.378 32.32 286.378 32.85C286.378 34.08 284.728 35.35 283.178 36.63V37.9ZM290.931 37.16C290.931 36.63 290.521 36.22 289.921 36.22C289.311 36.22 288.901 36.63 288.901 37.16C288.901 37.67 289.311 38.08 289.921 38.08C290.521 38.08 290.931 37.67 290.931 37.16ZM291.773 34.25C291.773 36.41 292.503 37.97 294.583 37.97C296.663 37.97 297.393 36.41 297.393 34.25C297.393 32.11 296.663 30.55 294.583 30.55C292.503 30.55 291.773 32.11 291.773 34.25ZM295.713 34.25C295.713 35.41 295.593 36.37 294.583 36.37C293.573 36.37 293.453 35.41 293.453 34.25C293.453 33.13 293.573 32.15 294.583 32.15C295.593 32.15 295.713 33.13 295.713 34.25ZM298.767 30.69V35.04H300.417C300.507 34.7 300.787 34.44 301.267 34.44C301.877 34.44 302.207 34.79 302.207 35.45C302.207 36.08 301.927 36.55 301.277 36.55C300.717 36.55 300.427 36.21 300.357 35.83H298.687C298.747 37.09 299.697 38 301.337 38C302.957 38 303.857 37 303.857 35.46C303.857 34.28 303.247 33.07 301.657 33.07C301.077 33.07 300.577 33.28 300.317 33.57V32.19H303.437V30.69H298.767ZM310.96 35.86C310.96 36.36 310.63 36.62 310.06 36.62H308.8V35.07H310.04C310.61 35.07 310.96 35.36 310.96 35.86ZM310.79 33.09C310.79 33.57 310.48 33.82 309.92 33.82H308.8V32.35H309.92C310.48 32.35 310.79 32.61 310.79 33.09ZM312.69 36.09C312.69 35.29 312.16 34.57 311.34 34.4C312.02 34.2 312.53 33.65 312.53 32.8C312.53 31.69 311.68 30.98 310.25 30.98H307.09V38H310.36C311.84 38 312.69 37.25 312.69 36.09ZM313.302 32.35H315.162V38H316.872V32.35H318.732V30.98H313.302V32.35ZM319.3 34.48C319.3 36.58 320.76 38.05 322.83 38.05C324.5 38.05 325.76 37.12 326.16 35.6H324.28C323.99 36.2 323.46 36.5 322.81 36.5C321.76 36.5 321.04 35.72 321.04 34.48C321.04 33.24 321.76 32.46 322.81 32.46C323.46 32.46 323.99 32.76 324.28 33.36H326.16C325.76 31.84 324.5 30.9 322.83 30.9C320.76 30.9 319.3 32.38 319.3 34.48Z" fill="#6C757D"/>
<path d="M68.4585 36.256C68.4585 37.32 67.7025 37.95 66.4425 37.95H64.1885V34.506H66.4005C67.6465 34.506 68.4585 35.178 68.4585 36.256ZM68.2065 31.874C68.2065 32.868 67.5205 33.456 66.3305 33.456H64.1885V30.292H66.3025C67.5485 30.292 68.2065 30.908 68.2065 31.874ZM69.7325 36.382C69.7325 35.178 68.8645 34.156 67.8005 33.974C68.7385 33.666 69.5085 32.952 69.5085 31.72C69.5085 30.362 68.4725 29.242 66.4145 29.242H62.9145V39H66.5545C68.5705 39 69.7325 37.852 69.7325 36.382ZM70.8985 30.278H73.5725V39H74.8465V30.278H77.5065V29.242H70.8985V30.278ZM78.5987 34.114C78.5987 37.04 80.7407 39.084 83.4707 39.084C85.5847 39.084 87.2647 38.034 87.9927 36.158H86.4667C85.9347 37.32 84.8987 37.978 83.4707 37.978C81.4267 37.978 79.9007 36.494 79.9007 34.114C79.9007 31.72 81.4267 30.236 83.4707 30.236C84.8987 30.236 85.9347 30.894 86.4667 32.07H87.9927C87.2647 30.18 85.5847 29.116 83.4707 29.116C80.7407 29.116 78.5987 31.188 78.5987 34.114Z" fill="#6C757D"/>
<path d="M69.0205 17.576C69.0205 18.376 68.4925 18.792 67.5805 18.792H65.5645V16.312H67.5485C68.4605 16.312 69.0205 16.776 69.0205 17.576ZM68.7485 13.144C68.7485 13.912 68.2525 14.312 67.3565 14.312H65.5645V11.96H67.3565C68.2525 11.96 68.7485 12.376 68.7485 13.144ZM71.7885 17.944C71.7885 16.664 70.9405 15.512 69.6285 15.24C70.7165 14.92 71.5325 14.04 71.5325 12.68C71.5325 10.904 70.1725 9.768 67.8845 9.768H62.8285V21H68.0605C70.4285 21 71.7885 19.8 71.7885 17.944ZM73.3754 21H76.1114V12.072H73.3754V21ZM74.7514 11.144C75.7114 11.144 76.3674 10.488 76.3674 9.672C76.3674 8.84 75.7114 8.184 74.7514 8.184C73.7754 8.184 73.1194 8.84 73.1194 9.672C73.1194 10.488 73.7754 11.144 74.7514 11.144ZM78.5262 17.896C78.5262 20.216 79.8222 21 81.6782 21H83.0702V18.68H82.0942C81.4862 18.68 81.2622 18.456 81.2622 17.928V14.344H83.0542V12.072H81.2622V9.896H78.5262V12.072H77.4382V14.344H78.5262V17.896ZM84.0502 16.536C84.0502 19.368 85.9062 21.128 88.5302 21.128C90.7702 21.128 92.3542 19.832 92.8182 17.768H89.9062C89.6662 18.424 89.2342 18.792 88.4822 18.792C87.5062 18.792 86.8342 18.024 86.8342 16.536C86.8342 15.048 87.5062 14.28 88.4822 14.28C89.2342 14.28 89.6822 14.68 89.9062 15.304H92.8182C92.3542 13.176 90.7702 11.944 88.5302 11.944C85.9062 11.944 84.0502 13.72 84.0502 16.536ZM103.018 16.536C103.018 13.704 101.002 11.944 98.3777 11.944C95.7697 11.944 93.7377 13.704 93.7377 16.536C93.7377 19.368 95.7217 21.128 98.3457 21.128C100.97 21.128 103.018 19.368 103.018 16.536ZM96.5217 16.536C96.5217 15.016 97.3857 14.312 98.3777 14.312C99.3377 14.312 100.234 15.016 100.234 16.536C100.234 18.04 99.3217 18.76 98.3457 18.76C97.3537 18.76 96.5217 18.04 96.5217 16.536ZM104.469 21H107.205V12.072H104.469V21ZM105.845 11.144C106.805 11.144 107.461 10.488 107.461 9.672C107.461 8.84 106.805 8.184 105.845 8.184C104.869 8.184 104.213 8.84 104.213 9.672C104.213 10.488 104.869 11.144 105.845 11.144ZM115.348 21H118.068V15.784C118.068 13.384 116.692 11.976 114.628 11.976C113.428 11.976 112.468 12.504 111.924 13.256V12.072H109.188V21H111.924V16.152C111.924 14.936 112.596 14.264 113.636 14.264C114.676 14.264 115.348 14.936 115.348 16.152V21Z" fill="white"/>
<rect width="48" height="45" rx="6" fill="#212125"/>
<g clip-path="url(#clip0_102_70)">
<path d="M31.3222 23.5418C30.8111 22.8808 30.0399 22.4269 29.0085 22.1802C30.3219 21.5102 30.8991 20.3731 30.7406 18.7688C30.6876 18.187 30.5268 17.6828 30.2579 17.2554C29.9887 16.8279 29.6255 16.4843 29.1669 16.2243C28.7086 15.964 28.2102 15.7659 27.6728 15.6292C27.1352 15.4926 26.5181 15.3934 25.8217 15.3318V12H23.7858V15.2392C23.4333 15.2392 22.8956 15.248 22.173 15.2657V12H20.1368V15.3318C19.8458 15.3407 19.4184 15.3451 18.8543 15.3451L16.0514 15.3318V17.5002H17.5189C18.1888 17.5002 18.581 17.7999 18.6956 18.3992V22.1938C18.7839 22.1938 18.8543 22.1984 18.9072 22.2072H18.6956V27.5219C18.6252 27.9714 18.3696 28.1963 17.9288 28.1963H16.4614L16.0515 30.6159H18.6958C18.8633 30.6159 19.1056 30.6181 19.423 30.6221C19.7403 30.6265 19.9782 30.6287 20.1369 30.6287V34.0001H22.1734V30.6684C22.5435 30.6774 23.0811 30.6817 23.7863 30.6817V34.0001H25.8222V30.6287C26.5451 30.5935 27.1863 30.5278 27.7458 30.4305C28.3055 30.3332 28.8411 30.1814 29.3522 29.9741C29.8633 29.7671 30.2907 29.5091 30.6344 29.2006C30.9783 28.8924 31.2623 28.5 31.4875 28.0239C31.7119 27.5479 31.8553 26.997 31.9168 26.371C32.0319 25.1462 31.8334 24.203 31.3222 23.5418ZM22.2125 17.6452C22.2743 17.6452 22.4483 17.643 22.7348 17.6385C23.0214 17.634 23.2593 17.6296 23.4488 17.6252C23.6383 17.6208 23.894 17.6319 24.2158 17.6583C24.5375 17.6847 24.8085 17.7201 25.0288 17.7641C25.2491 17.8081 25.4917 17.8808 25.7559 17.9822C26.0205 18.0835 26.2319 18.2069 26.3904 18.3523C26.5492 18.4977 26.6836 18.6829 26.7936 18.9077C26.9039 19.1324 26.959 19.3902 26.959 19.6811C26.959 19.9279 26.9194 20.1527 26.8402 20.3555C26.7611 20.5582 26.6418 20.728 26.4833 20.8646C26.3248 21.0012 26.1614 21.1203 25.9939 21.2216C25.8266 21.3229 25.6127 21.4045 25.3527 21.4661C25.0928 21.5279 24.8659 21.5763 24.6721 21.6115C24.4781 21.6468 24.2358 21.6711 23.9449 21.6843C23.6539 21.6974 23.4335 21.7064 23.2838 21.7108C23.1339 21.7151 22.929 21.7151 22.6689 21.7108C22.4087 21.7064 22.2569 21.7041 22.2127 21.7041V17.6452H22.2125V17.6452ZM27.7724 26.6488C27.6884 26.8517 27.5806 27.0281 27.4485 27.178C27.3161 27.3276 27.142 27.4599 26.9261 27.5744C26.7103 27.6891 26.5008 27.7815 26.2982 27.852C26.0954 27.9228 25.8507 27.9842 25.5645 28.0373C25.2777 28.0902 25.0266 28.1274 24.8105 28.1496C24.5946 28.1717 24.3369 28.1892 24.0371 28.2026C23.7375 28.2155 23.5038 28.2223 23.3364 28.2223C23.1689 28.2223 22.9573 28.2199 22.7017 28.2155C22.4459 28.2114 22.283 28.2092 22.2125 28.2092V23.7402C22.2829 23.7402 22.4923 23.7359 22.8405 23.7269C23.1888 23.718 23.4729 23.7139 23.6933 23.7139C23.9136 23.7139 24.2178 23.7269 24.6058 23.7535C24.9934 23.7798 25.3195 23.8193 25.5842 23.8722C25.8485 23.9252 26.137 24.0066 26.4501 24.1169C26.7629 24.227 27.0165 24.3614 27.2104 24.52C27.4044 24.679 27.5673 24.8814 27.6995 25.1283C27.832 25.375 27.8981 25.6571 27.8981 25.9745C27.898 26.2215 27.8562 26.446 27.7724 26.6488Z" fill="white"/>
</g>
<defs>
<linearGradient id="paint0_linear_102_70" x1="170.5" y1="124" x2="170.5" y2="264" gradientUnits="userSpaceOnUse">
<stop stop-color="#FEF0EE"/>
<stop offset="1" stop-color="#FEF0EE" stop-opacity="0"/>
</linearGradient>
<clipPath id="clip0_102_70">
<rect width="22" height="22" fill="white" transform="translate(13 12)"/>
</clipPath>
</defs>
</svg>
