<svg width="284" height="280" viewBox="0 0 284 280" fill="none" xmlns="http://www.w3.org/2000/svg">
<circle cx="-6.5" cy="139.5" r="290.5" fill="#433D3D"/>
<path d="M188 121.876V111.293C188 105.456 182.618 100.709 176 100.709H98C88.076 100.709 80 107.832 80 116.584V180.084C80 191.731 90.764 195.959 98 195.959H188C194.618 195.959 200 191.213 200 185.376V132.459C200 126.623 194.618 121.876 188 121.876ZM98 111.293H176V121.876H98C96.4552 121.815 94.9965 121.231 93.9277 120.245C92.8589 119.26 92.2624 117.948 92.2624 116.584C92.2624 115.221 92.8589 113.909 93.9277 112.924C94.9965 111.938 96.4552 111.354 98 111.293ZM188 185.376H98.072C95.3 185.313 92 184.344 92 180.084V131.481C93.884 132.078 95.882 132.459 98 132.459H188V185.376Z" fill="black"/>
<path d="M140 137.709C137.228 147.16 131.711 153.021 123 154.709C132.157 156.819 138.045 162.258 140 171.709C141.053 162.063 147.106 156.729 157 154.709C146.756 153.238 141.775 146.944 140 137.709Z" fill="#F77014"/>
<g clip-path="url(#clip0_229_173)">
<path d="M161.256 97.5094L170.691 40.7224C170.83 39.8857 170.733 39.045 170.422 38.3853C170.11 37.7256 169.61 37.3009 169.031 37.2047L138.453 32.1241C137.873 32.0279 137.263 32.268 136.755 32.7916C136.247 33.3152 135.883 34.0794 135.744 34.9161L126.309 91.7031C126.17 92.5398 126.267 93.3805 126.578 94.0402C126.89 94.6999 127.39 95.1246 127.969 95.2208L158.547 100.301C159.127 100.398 159.737 100.158 160.245 99.634C160.753 99.1104 161.117 98.3462 161.256 97.5094ZM137.754 90.3628C138.171 87.8526 137.881 85.3306 136.947 83.3515C136.013 81.3724 134.512 80.0983 132.774 79.8096L138.016 48.2612C139.754 48.55 141.586 47.8297 143.11 46.2589C144.634 44.6882 145.724 42.3955 146.141 39.8854L159.246 42.0628C158.829 44.5729 159.119 47.0949 160.053 49.0741C160.987 51.0532 162.488 52.3272 164.226 52.616L158.984 84.1643C157.246 83.8756 155.414 84.5958 153.89 86.1666C152.367 87.7374 151.276 90.03 150.859 92.5401L137.754 90.3628Z" fill="black"/>
<path d="M157.237 67.6643C158.393 60.7048 155.415 54.394 150.597 53.5934C145.778 52.7929 140.92 57.8016 139.763 64.7612C138.607 71.7207 141.585 78.0315 146.403 78.8321C151.222 79.6326 156.08 74.6239 157.237 67.6643ZM144.132 65.487C144.71 62.0072 147.139 59.5028 149.548 59.9031C151.957 60.3034 153.446 63.4588 152.868 66.9385C152.29 70.4183 149.861 72.9227 147.452 72.5224C145.043 72.1221 143.553 68.9667 144.132 65.487Z" fill="black"/>
</g>
<defs>
<clipPath id="clip0_229_173">
<rect width="76.754" height="53.1385" fill="white" transform="translate(181 32.7095) rotate(99.4334)"/>
</clipPath>
</defs>
</svg>
